<svg width="39" height="39" viewBox="0 0 39 39" fill="none" xmlns="http://www.w3.org/2000/svg">
<g id="korzina 1">
<g id="&#208;&#161;&#208;&#187;&#208;&#190;&#208;&#185;_x0020_1">
<g id="_1594057432752">
<path id="Vector" fill-rule="evenodd" clip-rule="evenodd" d="M9.25729 10.9247C9.42729 10.8851 9.43152 10.8489 9.63626 10.8489H29.0388C29.2435 10.8489 29.2477 10.8851 29.4177 10.9247C29.6453 11.9017 29.5785 13.1458 29.6658 13.784L30.1021 20.3205C30.1088 20.5793 30.0852 20.8013 30.1205 21.06C30.2306 21.8655 30.2145 22.5677 30.2511 23.2789C30.2834 23.9053 30.405 24.6397 30.4014 25.4782C30.3998 25.8355 30.44 25.9216 30.4677 26.1698L30.7845 31.31C30.7906 32.1735 31.0184 33.5029 30.8577 34.1926C30.6877 34.2322 30.6835 34.2683 30.4788 34.2683H8.19622C7.99152 34.2683 7.98724 34.2322 7.81725 34.1926C7.64115 33.4365 7.88871 31.5626 7.96484 30.6264C8.01348 30.0281 7.95319 29.295 8.08844 28.4004L8.57265 20.396C8.57541 20.0028 8.63379 19.9797 8.65122 19.6409C8.70432 18.6095 8.77374 17.7037 8.80028 16.6826L9.00918 13.784C9.09368 13.1661 9.04013 11.8567 9.25729 10.9247ZM18.428 4.40668C20.6199 4.40668 21.7291 4.22633 23.4963 5.62904C24.876 6.7242 24.9493 7.79865 25.2492 8.4236H13.4258C13.7305 7.78855 13.8866 6.61306 15.124 5.65016C15.9486 5.00848 17.006 4.40668 18.428 4.40668ZM10.9247 8.4236C9.704 8.4236 8.26167 8.2001 7.32758 9.44973C6.99298 9.89736 6.73083 10.3944 6.68384 11.0797L5.31456 32.9783C5.31946 34.1834 5.08571 35.2469 6.5723 36.2712C7.03518 36.5902 7.6742 36.7694 8.42359 36.7694H30.2514C31.5492 36.7694 32.6713 36.172 33.1559 35.0507C33.63 33.954 33.2764 32.283 33.207 30.9338C33.1714 30.2421 33.1876 29.4407 33.0877 28.7794L32.5248 20.0199C32.4856 19.2569 32.4862 18.4735 32.3943 17.801C32.2965 17.0858 32.3748 16.2839 32.2771 15.5686C32.1851 14.8961 32.1857 14.1127 32.1465 13.3497C32.1129 12.6984 32.0103 11.9157 31.9955 11.2269C31.9682 9.94799 31.1713 8.93184 29.9909 8.53253C29.3927 8.33018 28.4853 8.4236 27.7503 8.4236C27.674 7.50642 27.2289 6.53958 26.789 5.74696C26.4438 5.12511 25.6854 4.19803 25.1307 3.76725C24.7266 3.45339 24.5273 3.28539 24.0697 3.00923C21.5751 1.50404 17.1005 1.50364 14.6053 3.00923C12.7823 4.10922 11.1011 6.30311 10.9247 8.4236Z" fill="white"/>
<path id="Vector_2" fill-rule="evenodd" clip-rule="evenodd" d="M12.4405 15.2448C12.4405 21.7223 22.3042 23.7613 25.5573 17.9024C26.8824 15.5158 26.0913 13.5478 24.5428 14.1584C23.5154 14.5636 23.9203 15.4329 23.5623 16.3622C23.2647 17.1348 22.7608 17.6655 22.1126 18.0957C19.7811 19.6431 16.1062 18.8699 15.1337 16.4169C14.7801 15.525 15.1169 14.6351 14.2383 14.2047C13.3751 13.7818 12.4405 14.4263 12.4405 15.2448Z" fill="white"/>
</g>
</g>
</g>
</svg>
