<svg width="37" height="37" viewBox="0 0 37 37" fill="none" xmlns="http://www.w3.org/2000/svg">
<g id="search 1">
<g id="&#208;&#161;&#208;&#187;&#208;&#190;&#208;&#185;_x0020_1">
<path id="Vector" fill-rule="evenodd" clip-rule="evenodd" d="M4.34663 15.8724C4.34663 14.0366 4.70973 12.3281 5.36234 11.0053C8.63235 4.37699 16.4668 2.59522 21.9948 6.50372C24.3448 8.16519 25.7562 10.3273 26.4695 13.1409C26.87 14.7208 26.8825 16.5454 26.4995 18.1255C26.3437 18.7682 26.0857 19.66 25.7971 20.2555C25.127 21.6375 24.5699 22.4848 23.502 23.5527C23.0033 24.0514 22.6232 24.4218 22.0247 24.8352C20.1191 26.1514 18.0203 26.8361 15.6771 26.9158C15.1837 26.9326 13.6732 26.7483 13.1911 26.6373C10.2239 25.9537 7.3416 24.039 5.89643 21.3674C5.00766 19.7243 4.34663 18.0807 4.34663 15.8724ZM14.9502 29.2358C17.1779 29.2358 18.7567 29.0829 20.7081 28.2394C22.0762 27.648 22.3804 27.4445 23.4622 26.7085C23.7139 26.5374 24.0556 26.1832 24.3191 26.1128C24.6387 26.3268 32.3948 34.1381 33.2337 34.9918C34.3065 36.0837 35.3517 35.027 35.334 34.2562C35.3249 33.8587 35.1444 33.6215 34.9342 33.364C34.4948 32.8258 28.4207 26.8373 27.2786 25.6952C26.9401 25.3567 26.2168 24.7093 25.9895 24.3698C26.1764 24.0907 26.3849 23.88 26.5852 23.5856C29.2529 19.6639 29.8478 15.438 28.269 10.9057C27.3816 8.35821 25.255 5.75951 23.0081 4.32836C20.0207 2.42559 16.2354 1.50183 12.4366 2.46478C9.70537 3.15707 7.66866 4.37982 5.96258 6.0859C4.28062 7.76786 3.03445 9.80645 2.35632 12.5022C0.696699 19.0992 4.51122 26.1405 10.7285 28.3735C11.8322 28.77 13.4539 29.2358 14.9502 29.2358Z" fill="white"/>
</g>
</g>
</svg>
