<svg width="40" height="40" viewBox="0 0 40 40" fill="none" xmlns="http://www.w3.org/2000/svg">
<g id="user 1">
<g id="&#208;&#161;&#208;&#187;&#208;&#190;&#208;&#185;_x0020_1">
<g id="_1594472149920">
<path id="Vector" fill-rule="evenodd" clip-rule="evenodd" d="M5.47157 30.6361C5.47157 29.2227 5.68916 28.1393 6.76421 27.0643C7.39403 26.4344 8.58602 25.7716 9.5639 25.7716H30.1027C32.0765 25.7716 34.195 27.8908 34.195 29.8639C34.195 31.3236 34.01 32.3282 32.9024 33.4358C32.2802 34.0579 31.234 34.7284 30.0255 34.7284H9.64111C8.06403 34.7284 6.51136 33.5445 5.92466 32.2678C5.74566 31.8782 5.47157 31.2132 5.47157 30.6361ZM2.92352 30.1728C2.92352 34.1009 6.10921 37.2764 9.79554 37.2764H29.8711C33.5609 37.2764 36.7431 34.1104 36.7431 30.1728C36.7431 26.4156 33.5524 23.2236 29.7938 23.2236H9.87276C6.11556 23.2236 2.92352 26.4143 2.92352 30.1728Z" fill="white"/>
<path id="Vector_2" fill-rule="evenodd" clip-rule="evenodd" d="M13.2702 12.6453C13.2702 9.95102 14.7505 7.7344 16.8211 6.69896C19.4495 5.38463 22.4255 5.87971 24.563 7.99285C28.4666 11.852 25.7947 19.1087 19.8333 19.1087C16.3153 19.1087 13.2702 16.1955 13.2702 12.6453ZM19.4472 21.6021C22.3566 21.6021 24.3634 20.8138 26.3386 18.8417C27.1477 18.0339 27.6322 17.2765 28.1471 16.1718C28.5883 15.2252 28.9686 13.5434 28.9501 12.4914L28.6987 10.5748C28.5498 9.97944 28.4002 9.4302 28.1471 8.88712C27.4877 7.47263 26.426 6.03456 25.1471 5.16954C22.281 3.23101 19.1546 2.8983 15.9736 4.30716C13.3005 5.49102 11.0948 8.50637 10.8106 11.4211C10.7932 11.5998 10.8059 11.7596 10.787 11.9381C10.6419 13.3115 10.9389 14.8796 11.4951 16.119C11.9653 17.1667 12.5146 18.0308 13.2894 18.8031C14.1652 19.676 14.7251 20.1268 15.8691 20.7018C16.7349 21.137 18.1862 21.6021 19.4472 21.6021Z" fill="white"/>
</g>
</g>
</g>
</svg>
